HIERARCHY
ROOT Hips
{
	OFFSET 0.000000 0.000000 0.000000
	CHANNELS 6 Xposition Yposition Zposition Zrotation Yrotation Xrotation 
	JOINT LHipJoint
	{
		OFFSET 0.000000 0.000000 0.000000
		CHANNELS 3 Zrotation Yrotation Xrotation
		JOINT LeftUpLeg
		{
			OFFSET 1.363060 -1.794630 0.839290
			CHANNELS 3 Zrotation Yrotation Xrotation
			JOINT LeftLeg
			{
				OFFSET 2.448110 -6.726130 0.000000
				CHANNELS 3 Zrotation Yrotation Xrotation
				JOINT LeftFoot
				{
					OFFSET 2.562200 -7.039590 0.000000
					CHANNELS 3 Zrotation Yrotation Xrotation
					JOINT LeftToeBase
					{
						OFFSET 0.157640 -0.433110 2.322550
						CHANNELS 3 Zrotation Yrotation Xrotation
						End Site
						{
							OFFSET 0.000000 0.000000 0.000000
						}
					}
				}
			}
		}
	}
	JOINT RHipJoint
	{
		OFFSET 0.000000 0.000000 0.000000
		CHANNELS 3 Zrotation Yrotation Xrotation
		JOINT RightUpLeg
		{
			OFFSET -1.305520 -1.794630 0.839290
			CHANNELS 3 Zrotation Yrotation Xrotation
			JOINT RightLeg
			{
				OFFSET -2.542530 -6.985550 0.000000
				CHANNELS 3 Zrotation Yrotation Xrotation
				JOINT RightFoot
				{
					OFFSET -2.568260 -7.056230 0.000000
					CHANNELS 3 Zrotation Yrotation Xrotation
					JOINT RightToeBase
					{
						OFFSET -0.164730 -0.452590 2.363150
						CHANNELS 3 Zrotation Yrotation Xrotation
						End Site
						{
							OFFSET 0.000000 0.000000 0.000000
						}
					}
				}
			}
		}
	}
}
MOTION
Frames: 30
Frame Time: 0.008333
3.425921 17.893781 0.033535 145.856495 88.527260 170.339579 -8.812896 1.568747 4.266022 -12.275726 -3.371530 -38.679784 -3.185441 -1.141444 4.636922 0.421853 3.329255 4.155794 1.267200 0.000000 -45.940500 10.900780 -2.464252 -0.163053 7.840065 -3.542786 -12.524061 -0.625449 -1.761827 36.171645 -2.204626 -13.055463 12.922371 -4.804700 -0.000000 -60.712800
3.696280 17.858023 0.016043 150.185222 88.970722 174.430889 -8.989842 1.371567 4.111028 -12.460012 -2.226810 -39.140932 -3.393388 -1.281204 3.035869 0.114928 1.485970 4.578700 0.873101 0.000000 -47.684501 10.766864 -2.481946 -0.279904 7.736401 -3.417891 -12.473351 -0.734490 -1.894383 38.954620 -2.476027 -14.617071 11.372256 -5.026600 0.000001 -59.141600
3.964613 17.809510 -0.002571 155.424968 89.321241 179.408813 -9.184712 1.144314 3.932804 -12.586589 -1.305280 -39.593508 -3.542888 -1.368876 2.047940 -0.121733 -0.037116 4.781827 0.529700 0.000000 -48.896600 10.627111 -2.525742 -0.427218 7.534177 -3.323518 -12.415910 -0.820361 -2.059986 41.778545 -2.693074 -15.811091 9.877214 -5.054800 0.000000 -57.695599
4.231235 17.748503 -0.021536 161.761733 89.455768 -174.560584 -9.402364 0.878332 3.796267 -12.568843 -0.773596 -39.987455 -3.623659 -1.416271 1.644377 -0.270363 -1.041235 4.783533 0.302001 -0.000000 -49.570100 10.492877 -2.639099 -0.559362 7.237400 -3.280351 -12.380859 -0.870802 -2.274577 44.608833 -2.849037 -16.626354 8.504662 -4.927100 -0.000001 -56.479300
4.496443 17.675196 -0.039989 169.552054 89.653002 -167.507244 -9.602735 0.773431 3.999649 -12.337337 -0.606216 -40.221134 -3.612991 -1.406511 1.813220 -0.314530 -1.410125 4.541356 0.218900 -0.000000 -49.733100 10.395755 -2.824583 -0.418370 6.827766 -3.274869 -12.235367 -0.947970 -2.462660 47.445684 -2.934412 -17.069560 7.301687 -4.687700 0.000000 -55.553000
4.760363 17.589865 -0.057248 178.349450 89.982463 -159.063421 -9.771743 0.627576 4.064043 -11.877333 -0.897337 -40.628238 -3.493587 -1.327165 2.579139 -0.253263 -1.132932 4.057130 0.271400 -0.000000 -49.432300 10.296730 -2.899034 -0.515154 6.323922 -3.218446 -12.307840 -1.044153 -2.660214 50.316660 -2.966419 -17.185310 6.251026 -4.379501 0.000000 -54.985000
5.023186 17.492722 -0.072958 -172.121974 89.961078 -149.689606 -9.872413 0.389554 4.067203 -11.287290 -1.625478 -41.194760 -3.328191 -1.212808 4.122261 -0.125371 -0.410530 3.318980 0.413800 -0.000000 -48.730900 10.282657 -3.040833 -0.671877 5.786281 -3.219565 -12.593486 -1.097604 -2.936658 53.163949 -2.956870 -17.045046 5.341730 -4.034100 -0.000000 -54.700600
5.284933 17.384225 -0.086898 -162.971754 89.834586 -140.657795 -9.875963 0.199708 4.114543 -10.638870 -2.615583 -41.980828 -3.120014 -1.038166 6.497595 0.065413 0.600918 2.270242 0.585000 -0.000000 -47.676700 10.376209 -3.179430 -0.785028 5.204559 -3.239326 -13.013830 -1.163807 -3.215639 56.003376 -2.910498 -16.701292 4.551846 -3.675700 0.000000 -54.655800
5.545492 17.264815 -0.099749 -154.540978 89.696265 -132.323190 -9.815875 0.068482 4.176077 -10.036927 -3.667646 -43.080909 -2.878651 -0.781991 9.807876 0.295299 1.661988 0.873086 0.708900 -0.000000 -46.245800 10.535731 -3.286455 -0.855345 4.591145 -3.252169 -13.546435 -1.258476 -3.472849 58.838450 -2.840890 -16.230803 3.847686 -3.324700 0.000001 -54.764100
5.804719 17.135454 -0.112347 -146.741891 89.567859 -124.615454 -9.732493 -0.029318 4.222645 -9.526396 -4.664283 -44.475740 -2.607502 -0.445704 14.017573 0.544635 2.645612 -0.843524 0.744800 0.000001 -44.409600 10.721419 -3.364028 -0.889507 3.960887 -3.249699 -14.159198 -1.380840 -3.704860 61.653673 -2.761570 -15.709259 3.194977 -2.994300 -0.000000 -54.921200
6.062356 16.997927 -0.125559 -138.842803 89.421323 -116.824429 -9.645983 -0.126136 4.232569 -9.094813 -5.545228 -46.056836 -2.309550 -0.052200 18.955274 0.797542 3.513351 -2.811748 0.682800 -0.000000 -42.130600 10.920078 -3.424863 -0.894350 3.341429 -3.227942 -14.811642 -1.523768 -3.918444 64.418368 -2.684171 -15.206367 2.569694 -2.694000 -0.000000 -55.045400
6.318197 16.855280 -0.139386 -130.894544 89.264954 -109.018756 -9.566652 -0.233431 4.204079 -8.720200 -6.314393 -47.644868 -1.992573 0.360820 24.291516 1.049278 4.318955 -4.934189 0.537100 -0.000000 -39.506600 11.126492 -3.465123 -0.882877 2.722487 -3.185609 -15.466457 -1.683512 -4.115546 67.099571 -2.615864 -14.766379 1.954130 -2.426900 -0.000001 -55.052600
6.572054 16.711765 -0.152924 -123.003830 89.115523 -101.314754 -9.492028 -0.344141 4.140218 -8.416042 -6.979093 -49.063904 -1.678222 0.756073 29.666659 1.295228 5.106470 -7.130898 0.320899 -0.000000 -36.767100 11.345335 -3.477624 -0.865741 2.074890 -3.125985 -16.102543 -1.855905 -4.297888 69.659666 -2.560668 -14.413989 1.342540 -2.192800 0.000000 -54.907300
6.823884 16.572233 -0.164928 -114.351606 88.959735 -92.894748 -9.393213 -0.431274 4.041830 -8.213128 -7.526997 -50.188852 -1.393510 1.108356 34.781651 1.530079 5.881635 -9.360374 0.040801 -0.000000 -34.201400 11.605814 -3.450348 -0.845589 1.382144 -3.049374 -16.717894 -2.036825 -4.465363 72.060479 -2.519988 -14.157172 0.734364 -1.988900 0.000000 -54.574000
7.073760 16.441661 -0.174170 -102.308901 88.717831 -81.127014 -9.204206 -0.429929 3.907941 -8.121428 -7.914000 -50.958209 -1.161900 1.412386 39.427623 1.752355 6.628753 -11.614644 -0.300300 0.000000 -32.062900 11.972085 -3.341943 -0.815749 0.660330 -2.932034 -17.319783 -2.227528 -4.601399 74.271489 -2.493598 -13.991991 0.131602 -1.811300 -0.000000 -54.026400
7.321908 16.324618 -0.179919 -80.870242 88.163876 -60.003559 -8.844811 -0.159394 3.749291 -8.112594 -8.017783 -51.392993 -1.013557 1.715853 43.456238 1.970067 7.346162 -13.907294 -0.699300 -0.000000 -30.524700 12.508384 -2.997077 -0.767427 -0.057464 -2.666458 -17.904043 -2.451200 -4.616245 76.299097 -2.481478 -13.907336 -0.464150 -1.655300 -0.000000 -53.269700
7.568511 16.224981 -0.181805 -45.141983 86.967819 -24.621304 -8.707134 0.580709 3.640949 -8.320984 -7.663128 -51.578032 -1.015515 2.197129 46.662261 2.195960 8.105909 -16.253128 -1.150200 0.000000 -29.598700 12.742078 -2.185586 -0.754736 -0.979421 -2.046546 -18.451698 -2.749701 -4.305689 78.226069 -2.484125 -13.876602 -1.051336 -1.517401 0.000000 -52.348500
7.814072 16.145705 -0.180027 -14.816064 86.125905 5.367613 -9.487550 0.795252 3.555320 -9.038572 -7.409534 -51.257628 -1.066891 2.622845 49.045295 2.381484 8.819056 -18.504262 -1.639900 0.000000 -29.298001 12.002608 -1.810978 -0.838590 -2.314511 -1.611238 -19.138833 -2.949798 -4.138511 79.836439 -2.486849 -13.853909 -1.611381 -1.392601 -0.000000 -51.285900
8.059018 16.088744 -0.175086 -0.387463 85.922763 19.469150 -10.004583 0.567783 3.350109 -9.742170 -7.276075 -50.389500 -1.077348 2.739725 50.859040 2.528591 9.331370 -20.613979 -2.148700 -0.000000 -29.516300 11.598325 -1.906707 -0.849974 -3.399499 -1.476492 -19.970662 -3.028472 -4.304278 80.977751 -2.483845 -13.836004 -2.129475 -1.278200 0.000000 -50.155600
8.303787 16.055003 -0.167812 5.382539 85.602681 24.902118 -10.179836 0.472650 3.092514 -10.315052 -6.904434 -49.183707 -1.125457 2.767288 52.022792 2.665751 9.731463 -22.580000 -2.651500 -0.000000 -30.085700 11.548193 -1.917916 -0.791844 -4.214289 -1.253588 -20.854464 -3.087879 -4.455241 81.794481 -2.478262 -13.802727 -2.616953 -1.171100 0.000000 -48.993500
8.548991 16.044358 -0.159084 7.146734 85.102410 26.326567 -10.233782 0.497717 2.817629 -10.789726 -6.305685 -47.700906 -1.215971 2.757034 52.525542 2.789184 10.051166 -24.317052 -3.118100 -0.000000 -30.868700 11.602544 -1.832680 -0.695486 -4.834250 -0.911489 -21.788798 -3.129489 -4.545571 82.305913 -2.467448 -13.729001 -3.068510 -1.070900 0.000000 -47.885899
8.795098 16.055792 -0.149858 6.915224 84.482794 25.762669 -10.243854 0.583531 2.536754 -11.154490 -5.540321 -45.976333 -1.333070 2.708587 52.419128 2.891545 10.300858 -25.738710 -3.519800 -0.000000 -31.712700 11.678018 -1.697602 -0.572314 -5.265108 -0.478436 -22.772493 -3.143266 -4.590239 82.503469 -2.448005 -13.593870 -3.478945 -0.977200 0.000000 -46.882500
9.042581 16.087534 -0.140871 5.649812 83.796360 24.184982 -10.238350 0.693008 2.260102 -11.389497 -4.674385 -44.056343 -1.458765 2.620455 51.780719 2.966704 10.493709 -26.769020 -3.832200 0.000000 -32.526599 11.745237 -1.542508 -0.429894 -5.500214 0.012719 -23.799279 -3.123074 -4.602072 82.381269 -2.417469 -13.382120 -3.840500 -0.890700 0.000000 -46.044000
9.291799 16.137349 -0.132682 3.864526 83.083049 22.121830 -10.231595 0.804667 1.998140 -11.483851 -3.776557 -41.995624 -1.576046 2.495781 50.702558 3.010588 10.647366 -27.351797 -4.038500 0.000000 -33.286100 11.790108 -1.383880 -0.277299 -5.538843 0.526366 -24.859823 -3.066270 -4.589200 81.939797 -2.374329 -13.083802 -4.146707 -0.812800 0.000000 -45.417300
9.542919 16.202653 -0.125544 1.860221 82.375263 19.889174 -10.232736 0.907499 1.760296 -11.440046 -2.913999 -39.853491 -1.670572 2.342207 49.286263 3.021816 10.781556 -27.456951 -4.131200 -0.000000 -34.024600 11.804311 -1.229157 -0.125938 -5.389992 1.022926 -25.943585 -2.972718 -4.556387 81.183831 -2.318144 -12.695049 -4.391688 -0.744700 -0.000000 -45.044300
9.796018 16.280857 -0.119378 -0.184332 81.698567 17.679722 -10.247235 0.998826 1.553562 -11.273440 -2.146244 -37.688774 -1.732384 2.170811 47.635450 3.001781 10.913770 -27.083665 -4.110200 -0.000000 -34.810900 11.783443 -1.078946 0.010980 -5.070316 1.461108 -27.038967 -2.844177 -4.505619 80.120853 -2.249293 -12.216936 -4.571592 -0.687300 0.000000 -44.952100
10.050794 16.369468 -0.113940 -2.190604 81.073143 15.577859 -10.277201 1.082451 1.382160 -11.003263 -1.516636 -35.554625 -1.756737 1.994996 45.852310 2.953634 11.053736 -26.259051 -3.980600 0.000000 -35.727800 11.726759 -0.929373 0.119672 -4.595696 1.800465 -28.128774 -2.683677 -4.436166 78.759148 -2.168857 -11.655943 -4.688306 -0.640500 -0.000000 -45.137500
10.307092 16.466374 -0.108145 -3.979845 80.503680 13.758047 -10.320510 1.167227 1.254233 -10.678773 -1.055432 -33.488726 -1.744354 1.824747 44.013151 2.884006 11.213190 -25.025912 -3.752900 -0.000000 -36.861700 11.637990 -0.777817 0.197035 -4.012500 2.005088 -29.204482 -2.495813 -4.347312 77.106634 -2.077731 -11.016901 -4.738137 -0.604100 0.000000 -45.622600
10.564366 16.569616 -0.101851 -5.619478 80.010493 12.113804 -10.375417 1.262251 1.182406 -10.311017 -0.760408 -31.507307 -1.697920 1.669391 42.198835 2.796056 11.377582 -23.446717 -3.435700 0.000000 -38.286600 11.523106 -0.631136 0.248192 -3.322433 2.041866 -30.225072 -2.283310 -4.238127 75.166012 -1.977335 -10.313459 -4.733629 -0.575300 -0.000000 -46.321700
10.822166 16.677595 -0.094423 -7.082427 79.627843 10.621066 -10.440052 1.370259 1.179546 -9.925244 -0.614842 -29.604847 -1.620844 1.530801 40.461207 2.693968 11.531592 -21.584353 -3.041100 0.000000 -40.063100 11.389494 -0.509257 0.289895 -2.543974 1.882125 -31.153306 -2.046817 -4.116347 72.938571 -1.868428 -9.555984 -4.682586 -0.551900 -0.000000 -47.160400
